<?xml version="1.0" encoding="UTF-8" standalone="no"?>
<!-- Created with Inkscape (http://www.inkscape.org/) -->

<svg
   xmlns:dc="http://purl.org/dc/elements/1.1/"
   xmlns:cc="http://creativecommons.org/ns#"
   xmlns:rdf="http://www.w3.org/1999/02/22-rdf-syntax-ns#"
   xmlns:svg="http://www.w3.org/2000/svg"
   xmlns="http://www.w3.org/2000/svg"
   xmlns:sodipodi="http://sodipodi.sourceforge.net/DTD/sodipodi-0.dtd"
   xmlns:inkscape="http://www.inkscape.org/namespaces/inkscape"
   version="1.1"
   id="svg2"
   width="297mm"
   height="210mm"
   viewBox="0 0 1122.5197 793.7008"
   sodipodi:docname="logo.svg"
   inkscape:version="0.92.4 (5da689c313, 2019-01-14)">
  <metadata
     id="metadata8">
    <rdf:RDF>
      <cc:Work
         rdf:about="">
        <dc:format>image/svg+xml</dc:format>
        <dc:type
           rdf:resource="http://purl.org/dc/dcmitype/StillImage" />
        <dc:title></dc:title>
      </cc:Work>
    </rdf:RDF>
  </metadata>
  <defs
     id="defs6" />
  <sodipodi:namedview
     pagecolor="#ffffff"
     bordercolor="#666666"
     borderopacity="1"
     objecttolerance="10"
     gridtolerance="10"
     guidetolerance="10"
     inkscape:pageopacity="0"
     inkscape:pageshadow="2"
     inkscape:window-width="1920"
     inkscape:window-height="1016"
     id="namedview4"
     showgrid="false"
     inkscape:zoom="0.35355339"
     inkscape:cx="1121.1094"
     inkscape:cy="135.51532"
     inkscape:window-x="1920"
     inkscape:window-y="27"
     inkscape:window-maximized="1"
     inkscape:current-layer="svg2"
     units="mm"
     showguides="true"
     inkscape:guide-bbox="true" />
  <g
     id="g1069"
     transform="translate(-269.20414,1185.1072)">
    <path
       sodipodi:nodetypes="ccccccccccccc"
       inkscape:connector-curvature="0"
       id="path850"
       d="m 1093.2529,-615.6145 v 25.75 h -26.8956 v 33.25 h 22.6771 v 22.75 h -22.6771 v 44 h 26.8956 v 25.5 h -64.6909 v -151.25 z"
       style="fill:#000000;fill-opacity:1;stroke:none;stroke-width:21.95022583px;stroke-linecap:butt;stroke-linejoin:miter;stroke-opacity:1" />
    <g
       inkscape:export-ydpi="96"
       inkscape:export-xdpi="96"
       inkscape:export-filename="icon.png"
       transform="matrix(21.950226,0,0,21.950226,273.97345,-1160.4588)"
       id="g823">
      <path
         style="fill:#000000;fill-opacity:1;stroke:none;stroke-width:1px;stroke-linecap:butt;stroke-linejoin:miter;stroke-opacity:1"
         d="m 2.3816316,31.660624 0.776619,-10.924441 7.5590914,-0.103549 1.708562,2.019209 1.708562,-20.4509668 5.695206,3.0547014 1.035492,26.4568204 h -9.7854 L 9.9924979,30.314484 9.8371741,31.712398 Z"
         id="path817"
         inkscape:connector-curvature="0" />
      <path
         style="fill:#c8cccf;fill-opacity:1;stroke:none;stroke-width:1px;stroke-linecap:butt;stroke-linejoin:miter;stroke-opacity:1"
         d="m 4.7632632,21.668126 6.7824728,9.00878 h 7.455542 l -8.853456,-9.112329 z"
         id="path819"
         inkscape:connector-curvature="0" />
    </g>
    <g
       transform="matrix(21.950226,0,0,21.950226,273.28493,-1137.4714)"
       id="g822">
      <path
         style="fill:#000000;fill-opacity:1;stroke:none;stroke-width:1px;stroke-linecap:butt;stroke-linejoin:miter;stroke-opacity:1"
         d="m 22.658571,23.774556 h 2.066235 l 1.033117,6.89059 h -1.721862 l -0.172187,-1.765358 h -0.344372 l -0.172186,1.765358 h -1.721863 z"
         id="path815"
         inkscape:connector-curvature="0"
         sodipodi:nodetypes="ccccccccc" />
      <path
         style="fill:#c8cccf;fill-opacity:1;stroke:none;stroke-width:1px;stroke-linecap:butt;stroke-linejoin:miter;stroke-opacity:1"
         d="m 23.002943,24.238424 h 1.37749 l -0.516559,4.490523 h -0.344372 z"
         id="path818"
         inkscape:connector-curvature="0"
         sodipodi:nodetypes="ccccc" />
    </g>
    <g
       transform="matrix(24.540285,0,0,24.540285,214.15522,-1209.0683)"
       id="g857">
      <g
         id="g846">
        <path
           sodipodi:nodetypes="ccccccccccc"
           inkscape:connector-curvature="0"
           id="path824"
           d="m 25.858185,25.083995 v 4.066393 c 0,0.757731 1.232105,0.956384 1.591911,0.956384 -0.05178,0.120659 -0.05178,0.239402 0.256247,0.239402 h 0.862232 c 0.521414,0 0.463182,-0.50316 -0.114634,-0.50316 0.138375,0 0.484508,-0.383137 0.484508,-0.692583 v -4.066393 c 0,-0.486246 -0.616053,-0.901156 -1.540132,-0.901156 -0.924079,0 -1.540132,0.41491 -1.540132,0.901156 z"
           style="fill:#000000;fill-opacity:1;stroke:none;stroke-width:1px;stroke-linecap:butt;stroke-linejoin:miter;stroke-opacity:1" />
        <path
           inkscape:connector-curvature="0"
           id="path826"
           d="m 27.244304,24.416667 -0.770066,5.04321 h 1.848158 l -0.770066,-5.04321 z"
           style="fill:#c8cccf;fill-opacity:1;stroke:none;stroke-width:1px;stroke-linecap:butt;stroke-linejoin:miter;stroke-opacity:1"
           sodipodi:nodetypes="ccccc" />
      </g>
    </g>
    <g
       transform="matrix(24.300727,0,0,24.300727,221.24558,-1202.3679)"
       id="g861">
      <path
         style="fill:#000000;fill-opacity:1;stroke:none;stroke-width:1px;stroke-linecap:butt;stroke-linejoin:miter;stroke-opacity:1"
         d="m 29.49178,24.145508 h 3.110629 v 5.329059 c 0,0.653272 -0.933189,0.895035 -1.555314,0.895035 -0.622126,0 -1.555315,-0.241763 -1.555315,-0.895035 z"
         id="path848"
         inkscape:connector-curvature="0"
         sodipodi:nodetypes="cccccc" />
      <path
         inkscape:connector-curvature="0"
         id="path828"
         d="M 30.736032,30.127839 30.113906,24.38164 h 1.866377 l -0.777657,5.746199 z"
         style="fill:#c8cccf;fill-opacity:1;stroke:none;stroke-width:1px;stroke-linecap:butt;stroke-linejoin:miter;stroke-opacity:1"
         sodipodi:nodetypes="ccccc" />
    </g>
    <g
       transform="matrix(25.407239,0,0,25.407239,183.28833,-1234.0835)"
       id="g865">
      <path
         style="fill:#000007;fill-opacity:1;stroke:none;stroke-width:1px;stroke-linecap:butt;stroke-linejoin:miter;stroke-opacity:1"
         d="m 38.201453,24.342237 c 0.297516,0 1.190063,0.225848 1.190063,1.01349 l 5e-6,0.900334 c 1.3e-5,0.408349 -0.360123,0.805304 -0.429001,0.805304 0.06642,0 0.428996,0.498459 0.428996,0.941246 v 1.436598 c 0,0.432948 0.297516,0.856056 0.297516,0.856056 h -1.487579 c -0.247504,-0.231234 -0.247504,-2.292654 -0.247504,-2.292654 h -0.05001 v 2.292654 H 36.41636 v -5.953028 z"
         id="path852"
         inkscape:connector-curvature="0"
         sodipodi:nodetypes="cccccccccccccc" />
      <path
         inkscape:connector-curvature="0"
         id="path830"
         d="M 37.755179,27.559824 37.01139,24.937813 h 1.487579 l -0.595032,2.622011 z"
         style="fill:#c8cccf;fill-opacity:1;stroke:none;stroke-width:0.73000246px;stroke-linecap:butt;stroke-linejoin:miter;stroke-opacity:1"
         sodipodi:nodetypes="ccccc" />
    </g>
    <g
       transform="matrix(21.950226,0,0,21.950226,314.52103,-1131.3488)"
       id="g869">
      <path
         style="fill:#c8cccf;fill-opacity:1;stroke:#000000;stroke-width:0.18223047;stroke-linecap:butt;stroke-linejoin:miter;stroke-miterlimit:4;stroke-dasharray:none;stroke-opacity:1"
         d="m 41.048431,22.464889 1.205304,-2.98478 1.608554,1.086969 -2.469485,2.105179 z"
         id="path834"
         inkscape:connector-curvature="0"
         sodipodi:nodetypes="ccccc" />
      <path
         sodipodi:nodetypes="ccccc"
         style="fill:#000000;fill-opacity:1;stroke:none;stroke-width:1px;stroke-linecap:butt;stroke-linejoin:miter;stroke-opacity:1"
         d="m 40.1875,23.495626 h 1.721863 v 6.890589 H 40.1875 Z"
         id="path836"
         inkscape:connector-curvature="0" />
    </g>
    <g
       id="g1044"
       transform="matrix(21.950226,0,0,21.950226,769.28493,-1137.4714)">
      <path
         sodipodi:nodetypes="ccccccccc"
         inkscape:connector-curvature="0"
         id="path1040"
         d="m 22.658571,23.774556 h 2.066235 l 1.033117,6.89059 h -1.721862 l -0.172187,-1.765358 h -0.344372 l -0.172186,1.765358 h -1.721863 z"
         style="fill:#000000;fill-opacity:1;stroke:none;stroke-width:1px;stroke-linecap:butt;stroke-linejoin:miter;stroke-opacity:1" />
      <path
         sodipodi:nodetypes="ccccc"
         inkscape:connector-curvature="0"
         id="path1042"
         d="m 23.002943,24.238424 h 1.37749 l -0.516559,4.490523 h -0.344372 z"
         style="fill:#c8cccf;fill-opacity:1;stroke:none;stroke-width:1px;stroke-linecap:butt;stroke-linejoin:miter;stroke-opacity:1" />
    </g>
  </g>
</svg>
